# xmcd
#
# Track frame offsets:
#	150
#	38972
#	79581
#	113564
#	145928
#	186136
#	222383
#	256043
#
# Disc length: 3908 seconds
#
# Revision: 1
# Processed by: cddbd v1.5.2PL0 Copyright (c) Steve Scherf et al.
# Submitted via: audiograbber 1.83.01
#
DISCID=670f4208
DTITLE=Bony Mwaitege - Mama Ni Mama
DYEAR=2011
DGENRE=Negerpunk
TTITLE0=Mama Ni Mama
TTITLE1=Njoo Ufanyiwe Maombi
TTITLE2=Tega Sikio
TTITLE3=Inua Macho
TTITLE4=Omba Msamaha
TTITLE5=Maisha Ni Foleni
TTITLE6=Ndio Bwana
TTITLE7=Ni Kwa Neema
EXTD=
EXTT0=
EXTT1=
EXTT2=
EXTT3=
EXTT4=
EXTT5=
EXTT6=
EXTT7=
PLAYORDER=
